<svg width="856" height="4993" viewBox="0 0 856 4993" fill="none" xmlns="http://www.w3.org/2000/svg">
<g clip-path="url(#clip0_427_255)">
<rect width="856" height="4993" fill="#262D28"/>
<path d="M798.95 654.187C968.26 647.937 1047.92 800.012 1066.58 876.831C1120.81 1067.74 1178.57 1201.03 1168.87 1501.31C1134.78 1641.76 965.085 1912.52 559.095 1871.89C153.105 1831.27 25.741 1581.87 12.8076 1462.25C-15.4106 1381.52 -18.2325 1208.45 196.226 1161.97C410.685 1115.49 523.521 978.689 534.404 908.079C547.215 824.961 629.641 660.437 798.95 654.187Z" fill="url(#paint0_linear_427_255)"/>
<path d="M282.007 423.404C167.852 308.854 113.508 171.333 101.272 -65.2491L1208.4 -97C1160.34 297.246 1401.95 478.775 1038.16 478.775C1038.16 478.775 1111.22 412.175 838.893 515.559C738.249 575.244 434.425 576.351 282.007 423.404Z" fill="url(#paint1_linear_427_255)"/>
<g filter="url(#filter0_iif_427_255)">
<ellipse cx="-8.39249" cy="856.5" rx="135.841" ry="150.5" fill="url(#paint2_linear_427_255)"/>
</g>
<g filter="url(#filter1_iif_427_255)">
<ellipse cx="862.614" cy="327.5" rx="109.666" ry="121.5" fill="url(#paint3_linear_427_255)"/>
</g>
<g filter="url(#filter2_iif_427_255)">
<ellipse cx="784.539" cy="1527" rx="80.3312" ry="89" fill="url(#paint4_linear_427_255)"/>
</g>
<path d="M567.874 2695.14C715.582 2700.55 758.123 2909.15 779.316 2954.08C839.857 3082.42 987.144 2829.86 1076 3011.49C1147.08 3156.8 1114.45 3282.19 1088.35 3330.1C1065.26 3384.76 963.229 3451.23 832.628 3429.92C702.028 3408.6 585.745 3287.94 567.874 3237.03C528.818 3185.37 464.502 3119.5 328.119 3215.27C191.736 3311.03 11.8592 3331.72 -61.0311 3330.1C-123.781 3332.35 -251.028 3266 -272.473 3168.73C-293.919 3071.46 -256.711 2972.59 -244.161 2954.08C-205.105 2886.91 -120.729 2844.57 -11.3332 2876.4C98.0625 2908.22 211 2899 255.229 2863.26C293.301 2832.5 420.165 2689.74 567.874 2695.14Z" fill="url(#paint5_linear_427_255)"/>
<g filter="url(#filter3_iif_427_255)">
<ellipse cx="6.49972" cy="3001" rx="119.143" ry="132" transform="rotate(-180 6.49972 3001)" fill="url(#paint6_linear_427_255)"/>
</g>
<g filter="url(#filter4_iif_427_255)">
<ellipse cx="794.919" cy="2541.5" rx="60.9253" ry="67.5" fill="url(#paint7_linear_427_255)"/>
</g>
<path d="M-256.272 3351.69C-168.501 3268.48 -59.2932 3282.96 -15.6603 3300.6C60.7603 3320.45 199.604 3382.93 217.763 3474.07C254.866 3660.3 168.077 3781.43 117.887 3847.1C58.3642 3906.51 -111.779 3974.8 -228.276 3859.22C-317.181 3771.02 -334.079 3656.6 -337.232 3627.32C-346.816 3570.11 -344.042 3434.89 -256.272 3351.69Z" fill="url(#paint8_linear_427_255)"/>
<path d="M627.291 3477.12C713.107 3384.35 819.885 3400.5 862.547 3420.17C937.266 3442.29 1073.02 3511.95 1090.77 3613.57C1127.05 3821.21 1042.19 3956.27 993.121 4029.49C934.924 4095.73 768.568 4171.87 654.663 4043.01C567.737 3944.66 551.215 3817.09 548.132 3784.45C538.762 3720.66 541.474 3569.89 627.291 3477.12Z" fill="url(#paint9_linear_427_255)"/>
<path d="M146.082 4013.25C68.2495 3793.36 -103.417 3823.74 -166.621 3835.14L-285.941 4497.09C-126.847 4573.68 206.634 4697.31 267.803 4579.12C328.972 4460.93 268.375 4387.71 217.401 4349.35C125.236 4258.82 191.342 4165.54 146.082 4013.25Z" fill="url(#paint10_linear_427_255)"/>
<path d="M265.997 4653.74C56.5107 4632.58 -140.605 4705.94 -200.195 4755.74V4992.74H1466C1434.53 4928.39 1299.07 4804.92 1009.01 4825.81C718.951 4846.7 636.895 4830.68 594.091 4792.74C558.438 4771.24 475.483 4674.89 265.997 4653.74Z" fill="url(#paint11_linear_427_255)"/>
<g filter="url(#filter5_iif_427_255)">
<ellipse cx="805.299" cy="4252" rx="101.091" ry="112" fill="url(#paint12_linear_427_255)"/>
</g>
</g>
<defs>
<filter id="filter0_iif_427_255" x="-194.233" y="656" width="371.682" height="401" filterUnits="userSpaceOnUse" color-interpolation-filters="sRGB">
<feFlood flood-opacity="0" result="BackgroundImageFix"/>
<feBlend mode="normal" in="SourceGraphic" in2="BackgroundImageFix" result="shape"/>
<feColorMatrix in="SourceAlpha" type="matrix" values="0 0 0 0 0 0 0 0 0 0 0 0 0 0 0 0 0 0 127 0" result="hardAlpha"/>
<feMorphology radius="20" operator="erode" in="SourceAlpha" result="effect1_innerShadow_427_255"/>
<feOffset dx="4" dy="4"/>
<feGaussianBlur stdDeviation="25"/>
<feComposite in2="hardAlpha" operator="arithmetic" k2="-1" k3="1"/>
<feColorMatrix type="matrix" values="0 0 0 0 0 0 0 0 0 0 0 0 0 0 0 0 0 0 0.25 0"/>
<feBlend mode="normal" in2="shape" result="effect1_innerShadow_427_255"/>
<feColorMatrix in="SourceAlpha" type="matrix" values="0 0 0 0 0 0 0 0 0 0 0 0 0 0 0 0 0 0 127 0" result="hardAlpha"/>
<feMorphology radius="15" operator="erode" in="SourceAlpha" result="effect2_innerShadow_427_255"/>
<feOffset dx="-5" dy="-5"/>
<feGaussianBlur stdDeviation="25"/>
<feComposite in2="hardAlpha" operator="arithmetic" k2="-1" k3="1"/>
<feColorMatrix type="matrix" values="0 0 0 0 1 0 0 0 0 1 0 0 0 0 1 0 0 0 0.3 0"/>
<feBlend mode="normal" in2="effect1_innerShadow_427_255" result="effect2_innerShadow_427_255"/>
<feGaussianBlur stdDeviation="25" result="effect3_foregroundBlur_427_255"/>
</filter>
<filter id="filter1_iif_427_255" x="722.948" y="176" width="279.331" height="303" filterUnits="userSpaceOnUse" color-interpolation-filters="sRGB">
<feFlood flood-opacity="0" result="BackgroundImageFix"/>
<feBlend mode="normal" in="SourceGraphic" in2="BackgroundImageFix" result="shape"/>
<feColorMatrix in="SourceAlpha" type="matrix" values="0 0 0 0 0 0 0 0 0 0 0 0 0 0 0 0 0 0 127 0" result="hardAlpha"/>
<feMorphology radius="20" operator="erode" in="SourceAlpha" result="effect1_innerShadow_427_255"/>
<feOffset dx="4" dy="4"/>
<feGaussianBlur stdDeviation="25"/>
<feComposite in2="hardAlpha" operator="arithmetic" k2="-1" k3="1"/>
<feColorMatrix type="matrix" values="0 0 0 0 0 0 0 0 0 0 0 0 0 0 0 0 0 0 0.25 0"/>
<feBlend mode="normal" in2="shape" result="effect1_innerShadow_427_255"/>
<feColorMatrix in="SourceAlpha" type="matrix" values="0 0 0 0 0 0 0 0 0 0 0 0 0 0 0 0 0 0 127 0" result="hardAlpha"/>
<feMorphology radius="15" operator="erode" in="SourceAlpha" result="effect2_innerShadow_427_255"/>
<feOffset dx="-5" dy="-5"/>
<feGaussianBlur stdDeviation="25"/>
<feComposite in2="hardAlpha" operator="arithmetic" k2="-1" k3="1"/>
<feColorMatrix type="matrix" values="0 0 0 0 1 0 0 0 0 1 0 0 0 0 1 0 0 0 0.3 0"/>
<feBlend mode="normal" in2="effect1_innerShadow_427_255" result="effect2_innerShadow_427_255"/>
<feGaussianBlur stdDeviation="15" result="effect3_foregroundBlur_427_255"/>
</filter>
<filter id="filter2_iif_427_255" x="689.208" y="1423" width="190.662" height="208" filterUnits="userSpaceOnUse" color-interpolation-filters="sRGB">
<feFlood flood-opacity="0" result="BackgroundImageFix"/>
<feBlend mode="normal" in="SourceGraphic" in2="BackgroundImageFix" result="shape"/>
<feColorMatrix in="SourceAlpha" type="matrix" values="0 0 0 0 0 0 0 0 0 0 0 0 0 0 0 0 0 0 127 0" result="hardAlpha"/>
<feMorphology radius="20" operator="erode" in="SourceAlpha" result="effect1_innerShadow_427_255"/>
<feOffset dx="4" dy="4"/>
<feGaussianBlur stdDeviation="25"/>
<feComposite in2="hardAlpha" operator="arithmetic" k2="-1" k3="1"/>
<feColorMatrix type="matrix" values="0 0 0 0 0 0 0 0 0 0 0 0 0 0 0 0 0 0 0.25 0"/>
<feBlend mode="normal" in2="shape" result="effect1_innerShadow_427_255"/>
<feColorMatrix in="SourceAlpha" type="matrix" values="0 0 0 0 0 0 0 0 0 0 0 0 0 0 0 0 0 0 127 0" result="hardAlpha"/>
<feMorphology radius="15" operator="erode" in="SourceAlpha" result="effect2_innerShadow_427_255"/>
<feOffset dx="-5" dy="-5"/>
<feGaussianBlur stdDeviation="25"/>
<feComposite in2="hardAlpha" operator="arithmetic" k2="-1" k3="1"/>
<feColorMatrix type="matrix" values="0 0 0 0 1 0 0 0 0 1 0 0 0 0 1 0 0 0 0.3 0"/>
<feBlend mode="normal" in2="effect1_innerShadow_427_255" result="effect2_innerShadow_427_255"/>
<feGaussianBlur stdDeviation="7.5" result="effect3_foregroundBlur_427_255"/>
</filter>
<filter id="filter3_iif_427_255" x="-142.643" y="2839" width="298.286" height="324" filterUnits="userSpaceOnUse" color-interpolation-filters="sRGB">
<feFlood flood-opacity="0" result="BackgroundImageFix"/>
<feBlend mode="normal" in="SourceGraphic" in2="BackgroundImageFix" result="shape"/>
<feColorMatrix in="SourceAlpha" type="matrix" values="0 0 0 0 0 0 0 0 0 0 0 0 0 0 0 0 0 0 127 0" result="hardAlpha"/>
<feMorphology radius="20" operator="erode" in="SourceAlpha" result="effect1_innerShadow_427_255"/>
<feOffset dx="4" dy="4"/>
<feGaussianBlur stdDeviation="25"/>
<feComposite in2="hardAlpha" operator="arithmetic" k2="-1" k3="1"/>
<feColorMatrix type="matrix" values="0 0 0 0 0 0 0 0 0 0 0 0 0 0 0 0 0 0 0.25 0"/>
<feBlend mode="normal" in2="shape" result="effect1_innerShadow_427_255"/>
<feColorMatrix in="SourceAlpha" type="matrix" values="0 0 0 0 0 0 0 0 0 0 0 0 0 0 0 0 0 0 127 0" result="hardAlpha"/>
<feMorphology radius="15" operator="erode" in="SourceAlpha" result="effect2_innerShadow_427_255"/>
<feOffset dx="-5" dy="-5"/>
<feGaussianBlur stdDeviation="25"/>
<feComposite in2="hardAlpha" operator="arithmetic" k2="-1" k3="1"/>
<feColorMatrix type="matrix" values="0 0 0 0 1 0 0 0 0 1 0 0 0 0 1 0 0 0 0.3 0"/>
<feBlend mode="normal" in2="effect1_innerShadow_427_255" result="effect2_innerShadow_427_255"/>
<feGaussianBlur stdDeviation="15" result="effect3_foregroundBlur_427_255"/>
</filter>
<filter id="filter4_iif_427_255" x="718.993" y="2459" width="151.851" height="165" filterUnits="userSpaceOnUse" color-interpolation-filters="sRGB">
<feFlood flood-opacity="0" result="BackgroundImageFix"/>
<feBlend mode="normal" in="SourceGraphic" in2="BackgroundImageFix" result="shape"/>
<feColorMatrix in="SourceAlpha" type="matrix" values="0 0 0 0 0 0 0 0 0 0 0 0 0 0 0 0 0 0 127 0" result="hardAlpha"/>
<feMorphology radius="20" operator="erode" in="SourceAlpha" result="effect1_innerShadow_427_255"/>
<feOffset dx="4" dy="4"/>
<feGaussianBlur stdDeviation="25"/>
<feComposite in2="hardAlpha" operator="arithmetic" k2="-1" k3="1"/>
<feColorMatrix type="matrix" values="0 0 0 0 0 0 0 0 0 0 0 0 0 0 0 0 0 0 0.25 0"/>
<feBlend mode="normal" in2="shape" result="effect1_innerShadow_427_255"/>
<feColorMatrix in="SourceAlpha" type="matrix" values="0 0 0 0 0 0 0 0 0 0 0 0 0 0 0 0 0 0 127 0" result="hardAlpha"/>
<feMorphology radius="15" operator="erode" in="SourceAlpha" result="effect2_innerShadow_427_255"/>
<feOffset dx="-5" dy="-5"/>
<feGaussianBlur stdDeviation="25"/>
<feComposite in2="hardAlpha" operator="arithmetic" k2="-1" k3="1"/>
<feColorMatrix type="matrix" values="0 0 0 0 1 0 0 0 0 1 0 0 0 0 1 0 0 0 0.3 0"/>
<feBlend mode="normal" in2="effect1_innerShadow_427_255" result="effect2_innerShadow_427_255"/>
<feGaussianBlur stdDeviation="7.5" result="effect3_foregroundBlur_427_255"/>
</filter>
<filter id="filter5_iif_427_255" x="689.208" y="4125" width="232.182" height="254" filterUnits="userSpaceOnUse" color-interpolation-filters="sRGB">
<feFlood flood-opacity="0" result="BackgroundImageFix"/>
<feBlend mode="normal" in="SourceGraphic" in2="BackgroundImageFix" result="shape"/>
<feColorMatrix in="SourceAlpha" type="matrix" values="0 0 0 0 0 0 0 0 0 0 0 0 0 0 0 0 0 0 127 0" result="hardAlpha"/>
<feMorphology radius="20" operator="erode" in="SourceAlpha" result="effect1_innerShadow_427_255"/>
<feOffset dx="4" dy="4"/>
<feGaussianBlur stdDeviation="25"/>
<feComposite in2="hardAlpha" operator="arithmetic" k2="-1" k3="1"/>
<feColorMatrix type="matrix" values="0 0 0 0 0 0 0 0 0 0 0 0 0 0 0 0 0 0 0.25 0"/>
<feBlend mode="normal" in2="shape" result="effect1_innerShadow_427_255"/>
<feColorMatrix in="SourceAlpha" type="matrix" values="0 0 0 0 0 0 0 0 0 0 0 0 0 0 0 0 0 0 127 0" result="hardAlpha"/>
<feMorphology radius="15" operator="erode" in="SourceAlpha" result="effect2_innerShadow_427_255"/>
<feOffset dx="-5" dy="-5"/>
<feGaussianBlur stdDeviation="25"/>
<feComposite in2="hardAlpha" operator="arithmetic" k2="-1" k3="1"/>
<feColorMatrix type="matrix" values="0 0 0 0 1 0 0 0 0 1 0 0 0 0 1 0 0 0 0.3 0"/>
<feBlend mode="normal" in2="effect1_innerShadow_427_255" result="effect2_innerShadow_427_255"/>
<feGaussianBlur stdDeviation="7.5" result="effect3_foregroundBlur_427_255"/>
</filter>
<linearGradient id="paint0_linear_427_255" x1="504.863" y1="808.475" x2="1112.34" y2="1769.63" gradientUnits="userSpaceOnUse">
<stop stop-color="#1B201C"/>
<stop offset="1" stop-color="#262D28"/>
</linearGradient>
<linearGradient id="paint1_linear_427_255" x1="485.115" y1="-19.946" x2="905.692" y2="279.537" gradientUnits="userSpaceOnUse">
<stop stop-color="#1B201C"/>
<stop offset="1" stop-color="#262D28"/>
</linearGradient>
<linearGradient id="paint2_linear_427_255" x1="57.2385" y1="771.104" x2="-67.2523" y2="956.785" gradientUnits="userSpaceOnUse">
<stop stop-color="#FBFAF6"/>
<stop offset="0.348958" stop-color="#C0C7BF"/>
<stop offset="1" stop-color="#849487"/>
</linearGradient>
<linearGradient id="paint3_linear_427_255" x1="915.598" y1="258.559" x2="815.096" y2="408.461" gradientUnits="userSpaceOnUse">
<stop stop-color="#FBFAF6"/>
<stop offset="0.348958" stop-color="#C0C7BF"/>
<stop offset="1" stop-color="#849487"/>
</linearGradient>
<linearGradient id="paint4_linear_427_255" x1="823.351" y1="1476.5" x2="749.732" y2="1586.3" gradientUnits="userSpaceOnUse">
<stop stop-color="#FBFAF6"/>
<stop offset="0.348958" stop-color="#C0C7BF"/>
<stop offset="1" stop-color="#849487"/>
</linearGradient>
<linearGradient id="paint5_linear_427_255" x1="420" y1="2694.99" x2="420.327" y2="3181.22" gradientUnits="userSpaceOnUse">
<stop stop-color="#3C473F"/>
<stop offset="1" stop-color="#262D28"/>
</linearGradient>
<linearGradient id="paint6_linear_427_255" x1="64.0631" y1="2926.1" x2="-45.1248" y2="3088.96" gradientUnits="userSpaceOnUse">
<stop stop-color="#FBFAF6"/>
<stop offset="0.348958" stop-color="#C0C7BF"/>
<stop offset="1" stop-color="#849487"/>
</linearGradient>
<linearGradient id="paint7_linear_427_255" x1="824.354" y1="2503.2" x2="768.52" y2="2586.48" gradientUnits="userSpaceOnUse">
<stop stop-color="#FBFAF6"/>
<stop offset="0.348958" stop-color="#C0C7BF"/>
<stop offset="1" stop-color="#849487"/>
</linearGradient>
<linearGradient id="paint8_linear_427_255" x1="98.723" y1="3405.42" x2="-189.957" y2="3829.15" gradientUnits="userSpaceOnUse">
<stop stop-color="#3B463E"/>
<stop offset="1" stop-color="#262D28"/>
</linearGradient>
<linearGradient id="paint9_linear_427_255" x1="632.854" y1="3811.9" x2="800.106" y2="4060.57" gradientUnits="userSpaceOnUse">
<stop stop-color="#1D221E"/>
<stop offset="1" stop-color="#262D28"/>
</linearGradient>
<linearGradient id="paint10_linear_427_255" x1="3.79236" y1="3827" x2="221.458" y2="4528.64" gradientUnits="userSpaceOnUse">
<stop stop-color="#3D4841"/>
<stop offset="1" stop-color="#262D28"/>
</linearGradient>
<linearGradient id="paint11_linear_427_255" x1="632.902" y1="4629.74" x2="632.989" y2="4884.98" gradientUnits="userSpaceOnUse">
<stop stop-color="#1D221E"/>
<stop offset="1" stop-color="#262D28"/>
</linearGradient>
<linearGradient id="paint12_linear_427_255" x1="854.141" y1="4188.45" x2="761.496" y2="4326.63" gradientUnits="userSpaceOnUse">
<stop stop-color="#FBFAF6"/>
<stop offset="0.348958" stop-color="#C0C7BF"/>
<stop offset="1" stop-color="#849487"/>
</linearGradient>
<clipPath id="clip0_427_255">
<rect width="856" height="4993" fill="white"/>
</clipPath>
</defs>
</svg>
